<svg xmlns="http://www.w3.org/2000/svg" width="1024" height="1024" viewBox="0 0 1024 1024">
  <defs>
    <linearGradient id="fur" x1="0" y1="0" x2="0" y2="1">
      <stop offset="0" stop-color="#FFB14E"/>
      <stop offset="1" stop-color="#FF9A2E"/>
    </linearGradient>
    <filter id="soft" x="-25%" y="-25%" width="150%" height="150%">
      <feDropShadow dx="0" dy="12" stdDeviation="16" flood-color="#1A1140" flood-opacity="0.30"/>
    </filter>
  </defs>
  <g filter="url(#soft)" transform="translate(512 540) scale(0.82) translate(-512 -549)">
    <path d="M362 430 L488 372 L388 250 Z" fill="url(#fur)"/>
    <path d="M662 430 L536 372 L636 250 Z" fill="url(#fur)"/>
    <path d="M392 405 L470 369 L408 290 Z" fill="#FFD6E0"/>
    <path d="M632 405 L554 369 L616 290 Z" fill="#FFD6E0"/>
    <circle cx="512" cy="610" r="238" fill="url(#fur)"/>
    <path d="M512 372 q-22 40 0 74 q22 -34 0 -74z" fill="#FF8A1E" opacity="0.7"/>
    <path d="M300 520 q34 18 70 8 q-30 -26 -70 -8z" fill="#FF8A1E" opacity="0.6"/>
    <path d="M724 520 q-34 18 -70 8 q30 -26 70 -8z" fill="#FF8A1E" opacity="0.6"/>
    <ellipse cx="402" cy="680" rx="46" ry="26" fill="#FF6FA5" opacity="0.35"/>
    <ellipse cx="622" cy="680" rx="46" ry="26" fill="#FF6FA5" opacity="0.35"/>
    <ellipse cx="438" cy="600" rx="58" ry="68" fill="#ffffff"/>
    <ellipse cx="586" cy="600" rx="58" ry="68" fill="#ffffff"/>
    <circle cx="448" cy="612" r="34" fill="#2D2150"/>
    <circle cx="596" cy="612" r="34" fill="#2D2150"/>
    <circle cx="436" cy="598" r="13" fill="#ffffff"/>
    <circle cx="584" cy="598" r="13" fill="#ffffff"/>
    <path d="M489 662 H535 L512 690 Z" fill="#FF6F7D"/>
    <path d="M512 690 V708" stroke="#3A2A66" stroke-width="9" stroke-linecap="round" fill="none"/>
    <path d="M512 708 C 498 736, 466 734, 452 712" stroke="#3A2A66" stroke-width="9" stroke-linecap="round" fill="none"/>
    <path d="M512 708 C 526 736, 558 734, 572 712" stroke="#3A2A66" stroke-width="9" stroke-linecap="round" fill="none"/>
    <g stroke="#ffffff" stroke-width="8" stroke-linecap="round" opacity="0.9">
      <path d="M392 678 L268 654"/><path d="M390 700 L262 700"/><path d="M392 722 L268 748"/>
      <path d="M632 678 L756 654"/><path d="M634 700 L762 700"/><path d="M632 722 L756 748"/>
    </g>
    <path d="M512 250 L678 312 L512 374 L346 312 Z" fill="#2D2150"/>
    <path d="M512 286 L600 320 L512 354 L424 320 Z" fill="#3C2E73" opacity="0.65"/>
    <circle cx="512" cy="312" r="15" fill="#FFD23F"/>
    <path d="M512 312 L662 330 L660 430" stroke="#FFD23F" stroke-width="9" fill="none" stroke-linecap="round"/>
    <circle cx="660" cy="440" r="20" fill="#FFD23F"/>
    <path d="M648 452 q12 26 24 0" stroke="#E8B400" stroke-width="7" fill="none" stroke-linecap="round"/>
  </g>
</svg>
